<svg id="Layer_1" data-name="Layer 1" xmlns="http://www.w3.org/2000/svg" viewBox="0 0 2713.42 600"><defs><style>.cls-1{fill:#fff;}</style></defs><title>CJVT_Vejice_WHITE_1.1</title><path class="cls-1" d="M356.37,328.61c0,72.64-4.12,105.55-26,128.16-17.82,18.51-36.33,24.68-76.76,24.68H113.76c-40.43,0-58.94-6.17-76.76-24.68-25.35-26-37-65.1-37-167.21S11.65,148.38,37,122.34c17.13-18.51,36.33-24.68,76.76-24.68H253.57c40.43,0,58.94,6.17,76.76,24.68,21.25,21.92,26.73,53.46,26,122.67H230.27c-1.36-28.78-2.05-35.64-4.79-39.07-4.12-4.79-9.6-6.17-24-6.17h-33.6c-14.39,0-19.87.69-24,6.17-4.12,4.81-6.86,16.46-6.86,83.62s2.74,78.81,6.86,83.6c4.1,5.48,9.58,6.17,24,6.17h33.6c14.39,0,19.87-1.38,24-6.17,3.43-3.43,4.1-11.65,4.79-44.55ZM431.64,97.66h135.7V485.57c0,52.77-8.24,73.33-24.68,89.77C528.27,589.73,507,600,460.42,600c-31.52,0-54.82-4.1-85.67-10.27v-98h24c17.13,0,24-1.36,27.42-4.79,4.1-4.1,5.48-11,5.48-26ZM909.7,451.29c-8.22,26-19.87,31.54-45.91,31.54H772c-26,0-37.69-5.5-45.91-31.54L609.51,97.66H754.82l62.35,246.72h7.55L886.4,97.66h139.81Zm387-251.52V97.66h-91.84V1.72h-98.41l-40.7,123.55V383.46c0,48,6.86,65.78,19.18,78.12,13,13,33.59,24,79.5,24,38.38,0,76.07-4.81,98.7-10.29l32.88-7.53v-89.1h-58.25c-17.13,0-24-1.36-27.4-4.79-4.12-4.12-5.5-11-5.5-26v-148ZM1403,100h35.69l53.32,156,52.87-156h33.93l-70.5,191.68h-34.81Zm375,129.11c-6.61,52.88-50.23,67-82.84,67-45.39,0-86.37-26.88-86.37-100.47,0-74.46,44.51-100,85-100,39.21,0,85.48,22.91,85.48,99.58v5.73H1641.86c1.32,44.5,19,67.86,54.64,67.86,28.2,0,45-14.54,49.35-39.66Zm-32.61-50.23c-2.2-36.57-20.71-56.84-50.67-56.84-31.73,0-49.35,20.27-52.44,56.84Zm48.9,173.17a60.76,60.76,0,0,0,16.75,2.64c18.94,0,24.67-12.34,24.67-33.49V100h33V324.31c0,34.37-15.42,59-53.76,59-9.69,0-17.18-1.76-20.71-3.52ZM1832.21,0h40.09V37.45h-40.09ZM1934,0h40.1V37.45H1934Zm3.53,100h33V291.7h-33Zm256.44,126c-3.08,45.82-34.37,70.06-77.55,70.06-39.66,0-88.57-20.27-88.57-100.47,0-79.75,48.91-100,88.57-100,43.18,0,74.47,24.23,77.55,69.62h-32.6c-1.33-22.47-15-41-45.39-41-35.69,0-54.64,23.79-54.64,71.38s18.95,71.83,54.64,71.83c30.4,0,44.06-19,45.39-41.42Zm211.5,3.08c-6.61,52.88-50.23,67-82.84,67-45.38,0-86.36-26.88-86.36-100.47,0-74.46,44.5-100,85-100,39.22,0,85.48,22.91,85.48,99.58v5.73H2269.29c1.33,44.5,18.95,67.86,54.64,67.86,28.2,0,45-14.54,49.35-39.66Zm-32.61-50.23c-2.2-36.57-20.71-56.84-50.67-56.84-31.73,0-49.35,20.27-52.44,56.84ZM2578,167.82V291.7h-28.42v-89c-6.44,6.21-18.87,11.09-31.75,11.09V190.69c16.88-.45,30.42-10.66,35.08-22.87Zm35.07,94.57h29.31V291.7h-29.31Zm100.35-94.57V291.7H2685v-89c-6.44,6.21-18.87,11.09-31.75,11.09V190.69c16.88-.45,30.42-10.66,35.08-22.87Z"/></svg>