<?xml version="1.0" standalone="no"?>
<!DOCTYPE svg PUBLIC "-//W3C//DTD SVG 20010904//EN"
 "http://www.w3.org/TR/2001/REC-SVG-20010904/DTD/svg10.dtd">
<svg version="1.0" xmlns="http://www.w3.org/2000/svg"
 width="88px" height="88px" viewBox="0 0 1660.000000 1660.000000"
 preserveAspectRatio="xMidYMid meet">

<g transform="translate(0.000000,1660.000000) scale(0.100000,-0.100000)"
fill="#04305C" stroke="none">
<path d="M12268 13973 l-37 -15 59 -117 c161 -323 302 -703 390 -1052 34 -134
80 -352 80 -378 0 -12 -23 -22 -87 -39 -190 -49 -353 -156 -484 -320 l-34 -43
-106 25 c-664 157 -1415 182 -2099 70 -888 -145 -1747 -527 -2449 -1088 -599
-479 -1054 -1034 -1425 -1737 l-66 -126 -131 -47 c-411 -148 -865 -384 -1224
-635 l-139 -98 -67 57 c-208 179 -487 255 -744 201 -133 -27 -246 -74 -324
-133 -13 -10 -29 -18 -36 -18 -12 0 -154 211 -243 360 -186 314 -356 688 -474
1047 l-50 151 -42 -18 c-30 -13 -40 -22 -38 -36 2 -11 26 -89 54 -174 138
-425 344 -848 604 -1243 l104 -158 -70 -86 c-128 -159 -188 -316 -197 -519
-11 -246 66 -458 230 -631 59 -61 69 -77 60 -91 -6 -9 -47 -73 -91 -142 -325
-508 -580 -1132 -702 -1719 -25 -117 -70 -374 -70 -396 0 -3 22 -5 49 -5 l49
0 7 47 c102 706 387 1457 781 2066 35 53 65 97 67 97 3 0 43 -20 90 -44 143
-73 225 -91 407 -91 176 1 233 12 367 75 94 44 159 87 224 147 l46 43 129 -86
c71 -48 134 -91 140 -95 8 -7 5 -27 -12 -73 -79 -218 -67 -467 31 -675 96
-201 277 -370 478 -446 92 -34 147 -46 246 -54 l85 -6 48 -190 c132 -521 361
-1063 625 -1478 l43 -67 40 20 c22 11 40 22 40 24 0 2 -37 66 -81 142 -157
267 -305 579 -409 864 -93 254 -210 666 -195 690 3 6 17 10 30 10 35 0 181 48
246 81 159 79 309 233 391 397 35 71 44 83 62 79 12 -3 71 -15 131 -27 61 -11
119 -23 131 -25 19 -4 22 -14 27 -92 20 -302 205 -575 482 -713 134 -66 236
-90 390 -90 66 0 149 7 185 14 381 81 661 402 696 795 4 46 12 84 18 86 6 2
74 15 151 30 77 14 150 29 161 31 18 5 24 -2 38 -38 69 -173 234 -346 418
-439 137 -69 209 -84 398 -84 153 1 171 3 250 29 293 97 491 296 585 586 53
163 45 406 -18 568 -12 32 -22 60 -22 63 0 3 56 44 125 90 l125 85 75 -63 c84
-71 237 -152 340 -180 93 -25 358 -25 450 0 96 27 236 97 314 157 37 29 71 48
75 43 444 -627 761 -1385 886 -2118 15 -88 29 -166 31 -172 2 -8 21 -13 50
-13 l46 0 -7 58 c-4 31 -20 129 -36 217 -126 678 -401 1354 -792 1943 l-113
171 53 78 c99 149 145 302 146 488 0 232 -72 424 -224 591 l-48 53 90 135 91
136 36 -16 c124 -52 358 -70 502 -40 324 69 583 317 672 644 30 111 30 324 -1
437 -43 161 -125 299 -247 416 -82 78 -142 120 -229 161 -36 16 -65 31 -65 33
0 1 11 56 24 121 13 66 27 136 30 157 7 36 8 37 50 37 24 0 83 7 131 15 276
48 527 240 642 491 13 30 27 54 30 54 8 0 153 -103 266 -187 366 -277 733
-645 1022 -1028 236 -311 496 -758 630 -1080 16 -39 32 -74 36 -78 3 -5 25 1
47 12 l41 21 -30 72 c-17 40 -71 156 -120 257 -270 555 -612 1028 -1065 1471
-234 229 -443 401 -717 591 l-78 54 8 60 c4 33 7 116 7 185 -1 103 -6 140 -28
213 -112 375 -426 618 -826 640 l-45 2 -31 155 c-63 311 -154 619 -269 910
-70 179 -234 520 -249 519 -6 -1 -28 -8 -48 -16z m-1178 -1903 c196 -11 400
-33 568 -60 143 -23 416 -80 432 -90 9 -6 8 -15 -4 -38 -65 -125 -93 -366 -62
-521 38 -186 109 -323 236 -451 131 -133 268 -211 433 -247 l78 -17 -7 -39
c-3 -22 -16 -88 -28 -146 -19 -93 -24 -106 -41 -104 -11 1 -58 7 -105 13 -198
26 -422 -32 -595 -155 -73 -52 -187 -170 -238 -248 -243 -366 -155 -891 194
-1161 37 -28 74 -55 83 -61 14 -9 7 -25 -60 -125 -42 -63 -80 -119 -85 -124
-4 -5 -29 5 -56 22 -168 108 -397 160 -584 133 -154 -22 -286 -76 -406 -163
-29 -21 -55 -38 -59 -38 -3 0 -40 24 -82 53 -286 199 -682 409 -1037 550 -627
248 -1261 368 -1955 368 -559 0 -1015 -64 -1543 -218 -16 -5 -13 6 16 64 20
38 68 125 108 194 404 696 969 1296 1644 1746 922 614 2058 925 3155 863z
m-3120 -2750 c948 -54 1813 -337 2603 -853 123 -80 136 -91 125 -107 -7 -9
-30 -39 -50 -66 -190 -249 -224 -601 -88 -892 22 -47 52 -101 67 -120 14 -19
22 -37 17 -41 -81 -57 -225 -151 -232 -151 -4 0 -16 14 -25 30 -10 17 -44 58
-75 92 -285 307 -738 374 -1096 161 -107 -64 -245 -202 -309 -309 -109 -184
-152 -426 -108 -616 l9 -38 -42 -11 c-105 -28 -278 -56 -282 -45 -2 6 -13 47
-24 91 -40 158 -123 298 -246 416 -173 164 -365 242 -604 242 -250 1 -460 -90
-635 -274 -121 -128 -179 -231 -220 -394 -27 -105 -7 -98 -190 -61 l-110 22 5
50 c3 27 5 110 4 184 -1 115 -5 148 -28 223 -102 339 -381 578 -730 626 -37 6
-70 12 -73 14 -7 7 24 212 58 379 72 361 177 696 331 1056 l61 142 81 26 c556
176 1214 257 1806 224z m-2023 -312 c-187 -419 -322 -883 -393 -1343 -14 -88
-27 -166 -29 -172 -2 -7 -17 -13 -32 -13 -47 0 -189 -38 -257 -69 -131 -59
-278 -179 -352 -287 -21 -30 -42 -54 -48 -54 -14 0 -256 161 -256 171 0 4 16
31 35 60 43 66 89 176 112 266 26 104 24 314 -4 418 -26 96 -61 178 -109 252
-33 52 -34 56 -17 69 10 8 90 63 178 122 334 227 618 378 1005 533 150 60 176
68 167 47z"/>
<path d="M1515 2374 c-298 -35 -549 -121 -750 -257 -153 -104 -311 -293 -376
-448 -57 -138 -73 -227 -73 -399 0 -172 16 -261 73 -399 65 -155 223 -344 376
-448 129 -87 310 -167 475 -207 173 -44 237 -51 450 -51 313 0 511 34 842 146
212 71 257 80 278 54 10 -12 15 -12 35 1 l23 15 -210 320 c-116 175 -216 319
-223 319 -25 0 -35 -25 -23 -57 15 -41 7 -58 -49 -93 -83 -53 -243 -103 -447
-140 -270 -49 -544 -3 -736 125 -123 82 -204 210 -219 344 -33 316 158 533
536 610 285 58 766 -12 878 -129 21 -21 26 -35 23 -65 -2 -27 2 -40 14 -48 9
-6 19 -9 21 -7 11 14 368 672 365 675 -12 11 -48 14 -53 5 -18 -29 -55 -29
-142 -3 -291 86 -438 116 -657 133 -120 9 -363 11 -431 4z"/>
<path d="M3390 2336 c0 -19 6 -24 38 -29 20 -4 47 -14 60 -22 l22 -16 0 -999
0 -999 -22 -16 c-13 -8 -40 -18 -60 -22 -32 -5 -38 -10 -38 -29 l0 -24 1100 0
1100 0 14 -23 c8 -12 17 -37 21 -55 5 -25 12 -32 31 -32 l24 0 0 365 0 365
-23 0 c-19 0 -26 -9 -38 -47 -9 -32 -22 -52 -39 -60 -19 -10 -188 -13 -737
-13 l-713 0 0 794 0 795 23 16 c12 8 39 18 60 22 31 5 37 10 37 29 l0 24 -430
0 -430 0 0 -24z"/>
<path d="M6750 2336 c0 -19 7 -25 36 -30 19 -4 38 -15 41 -24 9 -21 -5 -59
-312 -867 -397 -1043 -422 -1106 -442 -1134 -11 -14 -34 -32 -51 -40 -23 -10
-32 -21 -32 -38 l0 -23 365 0 365 0 0 23 c0 17 -8 25 -32 32 -22 7 -34 17 -36
31 -2 16 74 242 123 367 7 16 37 17 498 15 l490 -3 68 -175 c38 -96 69 -183
69 -192 0 -20 -36 -48 -62 -48 -13 0 -18 -8 -18 -25 l0 -25 410 0 410 0 0 23
c0 15 -11 27 -33 37 -19 9 -41 32 -55 57 -24 45 -437 1051 -658 1606 -75 186
-134 348 -132 360 2 13 16 28 35 37 22 10 33 22 33 38 l0 22 -540 0 -540 0 0
-24z m704 -863 c108 -265 196 -485 196 -488 0 -3 -171 -5 -380 -5 -209 0 -380
4 -380 8 0 4 79 219 175 478 96 258 177 475 180 483 3 8 7 12 10 10 2 -3 92
-221 199 -486z"/>
<path d="M9140 2336 c0 -19 6 -24 38 -29 20 -4 47 -14 60 -22 l22 -16 0 -999
0 -999 -22 -16 c-13 -8 -40 -18 -60 -22 -32 -5 -38 -10 -38 -29 l0 -24 430 0
430 0 0 24 c0 19 -6 24 -37 29 -21 4 -48 14 -60 22 l-23 16 0 365 0 364 203 0
202 0 175 -237 c236 -318 320 -442 320 -469 0 -29 -25 -53 -61 -61 -22 -4 -29
-11 -29 -29 l0 -24 430 0 430 0 0 24 c0 19 -7 26 -29 31 -15 3 -40 18 -54 33
-44 46 -516 717 -509 723 4 3 36 16 72 29 262 91 426 250 486 471 24 86 24
296 0 393 -67 276 -270 424 -639 465 -61 7 -399 11 -917 11 l-820 0 0 -24z
m1611 -464 c30 -12 69 -36 87 -53 92 -90 77 -261 -30 -327 -76 -47 -126 -52
-540 -52 l-388 0 0 231 0 230 408 -3 c393 -3 409 -4 463 -26z"/>
<path d="M12180 2336 c0 -19 6 -24 38 -29 20 -4 47 -14 60 -22 l22 -16 0 -999
0 -999 -22 -16 c-13 -8 -40 -18 -60 -22 -32 -5 -38 -10 -38 -29 l0 -24 430 0
430 0 0 24 c0 19 -6 24 -37 29 -21 4 -48 14 -60 22 l-23 16 0 999 0 999 23 16
c12 8 39 18 60 22 31 5 37 10 37 29 l0 24 -430 0 -430 0 0 -24z"/>
<path d="M13740 2336 c0 -19 6 -24 38 -29 20 -4 47 -14 60 -22 l22 -16 0 -999
0 -999 -22 -16 c-13 -8 -40 -18 -60 -22 -32 -5 -38 -10 -38 -29 l0 -24 395 0
395 0 0 24 c0 20 -6 25 -39 31 -79 13 -76 -12 -79 524 -1 262 -1 559 0 660 l3
184 340 -374 c187 -206 437 -477 555 -603 274 -292 300 -322 300 -351 0 -27
-26 -45 -64 -45 -21 0 -26 -5 -26 -25 l0 -25 395 0 395 0 0 24 c0 19 -6 24
-37 29 -21 4 -48 14 -60 22 l-23 16 0 999 0 999 23 16 c12 8 39 18 60 22 31 5
37 10 37 29 l0 24 -380 0 -380 0 0 -23 c0 -17 9 -26 34 -35 24 -9 38 -22 45
-44 14 -40 15 -1121 2 -1116 -10 3 -302 318 -630 678 -313 344 -371 413 -371
444 0 18 54 46 90 46 15 0 20 7 20 25 l0 25 -500 0 -500 0 0 -24z"/>
</g>
</svg>
