
<svg width="120px" height="120px" viewBox="0 0 165 165" version="1.1" xmlns="http://www.w3.org/2000/svg" xmlns:xlink="http://www.w3.org/1999/xlink">
    <defs>
        <polygon id="path-1" points="9.23200139 0.141689751 0.363594183 0.141689751 0.363594183 13.7812936 9.23200139 13.7812936 9.23200139 0.141689751"></polygon>
        <polygon id="path-3" points="5.02724377 0.141689751 0.00548476454 0.141689751 0.00548476454 13.7812479 5.02724377 13.7812479 5.02724377 0.141689751"></polygon>
        <polygon id="path-5" points="0 164.85831 164.550249 164.85831 164.550249 0.457063712 0 0.457063712"></polygon>
    </defs>
    <g id="Page-1" stroke="none" stroke-width="1" fill="none" fill-rule="evenodd">
        <g id="Page2_Akcije_Korekture-Copy-81" transform="translate(-168.000000, -1566.000000)">
            <g id="Page-1" transform="translate(168.000000, 1566.000000)">
                <path d="M10.5812078,10.0181967 C10.5812078,10.9798587 10.5999474,11.8459945 9.88875623,12.5768393 C9.09986427,13.3657313 7.86853463,13.6157452 6.77158172,13.6157452 C5.71393629,13.6157452 4.25178947,13.3465346 3.65532133,12.3652188 C3.21242659,11.6535706 3.25127701,10.2494709 3.25127701,9.40253186 L3.25127701,3.97764266 C3.25127701,2.7655097 3.15483657,2.39985873 4.50180332,2.39985873 C4.67503047,2.39985873 5.00183102,2.39985873 5.00183102,2.14984488 C5.00183102,1.93822438 4.84825762,1.88017729 4.67503047,1.88017729 C3.94372853,1.88017729 3.21242659,1.95696399 2.48158172,1.95696399 C1.75073684,1.95696399 1.05828532,1.88017729 0.32698338,1.88017729 C0.134559557,1.88017729 0.000182825485,1.93822438 0.000182825485,2.14984488 C0.000182825485,2.39985873 0.307786704,2.39985873 0.48101385,2.39985873 C1.82752355,2.39985873 1.73154017,2.7655097 1.73154017,3.97764266 L1.73154017,10.0181967 C1.73154017,11.2879197 1.71234349,12.3844155 2.86688643,13.2117008 C3.82854848,13.8849557 5.3094349,14.0965762 6.44478116,14.0965762 C7.71450416,14.0965762 9.09986427,13.9041524 10.0615263,13.0773241 C11.1004321,12.172795 11.1196288,11.2495263 11.1196288,10.0181967 L11.1196288,4.01603601 C11.1196288,3.13116066 11.0231884,2.39985873 12.1201413,2.39985873 C12.2938255,2.39985873 12.7358061,2.39985873 12.7358061,2.1306482 C12.7358061,1.89937396 12.4853352,1.88017729 12.3317618,1.88017729 C11.8317341,1.88017729 11.3312493,1.95696399 10.8312216,1.95696399 C10.2544072,1.95696399 9.67713573,1.88017729 9.09986427,1.88017729 C8.90744044,1.88017729 8.69581994,1.93822438 8.69581994,2.14984488 C8.69581994,2.4190554 9.04181717,2.39985873 9.21504432,2.39985873 C9.65748199,2.39985873 10.1387701,2.4190554 10.3695873,2.8422964 C10.5999474,3.22714404 10.5812078,4.28524654 10.5812078,4.74733795 L10.5812078,10.0181967 Z" id="Fill-1" fill="#FFFFFF"></path>
                <path d="M14.0065346,11.9035845 C14.0065346,12.7308698 14.1797618,13.384928 13.140856,13.4809114 C12.9292355,13.5005651 12.6019778,13.4621717 12.6019778,13.7505789 C12.6019778,13.9041524 12.7372687,13.9430028 12.8716454,13.9430028 C13.4681136,13.9430028 14.0833213,13.8662161 14.6989861,13.8662161 C15.2762576,13.8662161 15.8919224,13.9430028 16.5075873,13.9430028 C16.6424211,13.9430028 16.7384044,13.8849557 16.7384044,13.7313823 C16.7384044,13.4809114 16.3924072,13.5005651 16.1999834,13.4809114 C15.1610776,13.384928 15.3343047,12.7308698 15.3343047,11.9035845 L15.3343047,8.67168698 C15.3343047,7.90199169 15.3918947,7.47875069 15.9495125,6.90193629 C16.4499972,6.38225485 17.1232521,6.07419391 17.854097,6.07419391 C18.6045956,6.07419391 19.2970471,6.38225485 19.6626981,6.94032964 C20.0091524,7.45909695 20.0091524,8.22879224 20.0091524,8.84491413 L20.0091524,11.9035845 C20.0091524,12.7308698 20.1823795,13.384928 19.1434737,13.4809114 C18.9318532,13.5005651 18.6045956,13.4621717 18.6045956,13.7505789 C18.6045956,13.9041524 18.7394294,13.9430028 18.8738061,13.9430028 C19.4702742,13.9430028 20.0859391,13.8662161 20.7016039,13.8662161 C21.2788753,13.8662161 21.8945402,13.9430028 22.510205,13.9430028 C22.6445817,13.9430028 22.7410222,13.8849557 22.7410222,13.7313823 C22.7410222,13.4809114 22.3945679,13.5005651 22.202144,13.4809114 C21.1636953,13.384928 21.3364654,12.7308698 21.3364654,11.9035845 L21.3364654,8.8641108 C21.3364654,7.94038504 21.3748587,6.99791967 20.7591939,6.2090277 C20.2207729,5.51611911 19.4510776,5.17012188 18.4894155,5.17012188 C16.7384044,5.17012188 15.6615623,6.74790582 15.3343047,6.74790582 L15.3343047,5.47772576 C15.3343047,5.34334903 15.3535014,5.17012188 15.1610776,5.17012188 C15.0070471,5.17012188 14.9106066,5.32415235 14.8146233,5.42013573 C14.5070194,5.7857867 13.6797341,6.2858144 13.2176427,6.4206482 C13.0448726,6.47869529 12.775205,6.51663158 12.775205,6.74790582 C12.775205,6.86308587 12.8908421,6.90193629 13.0060222,6.90193629 L13.2564931,6.90193629 C13.4105235,6.90193629 13.6989307,6.92113296 13.8141108,7.0555097 C14.0257313,7.26713019 14.0065346,8.01717175 14.0065346,8.28683934 L14.0065346,11.9035845 Z" id="Fill-3" fill="#FFFFFF"></path>
                <path d="M25.7781191,3.4965374 C26.3361939,3.4965374 26.6246011,3.05364266 26.6246011,2.53441828 C26.6246011,2.07278393 26.3169972,1.61114958 25.8169695,1.61114958 C25.2972881,1.61114958 24.9508338,2.07278393 24.9508338,2.57281163 C24.9508338,3.0732964 25.2588947,3.4965374 25.7781191,3.4965374 L25.7781191,3.4965374 Z M26.451831,5.47790859 C26.451831,5.34307479 26.4705706,5.17030471 26.2786039,5.17030471 C26.1245734,5.17030471 26.02859,5.32433518 25.9321496,5.42031856 C25.6245457,5.78596953 24.7972604,6.28599723 24.335169,6.42037396 C24.1619418,6.47842105 23.8927313,6.51635734 23.8927313,6.74763158 C23.8927313,6.8632687 24.0083684,6.90166205 24.1235485,6.90166205 L24.3735623,6.90166205 C24.5275928,6.90166205 24.8164571,6.92085873 24.9316371,7.05569252 C25.1432576,7.26731302 25.1240609,8.01735457 25.1240609,8.2865651 L25.1240609,11.9037673 C25.1240609,12.7310526 25.2972881,13.3851108 24.2583823,13.4810942 C24.0467618,13.5007479 23.7199612,13.4618975 23.7199612,13.7507618 C23.7199612,13.9038781 23.854795,13.9427285 23.9891717,13.9427285 C24.5851828,13.9427285 25.2008476,13.8659418 25.8169695,13.8659418 C26.3937839,13.8659418 27.0094488,13.9427285 27.6251136,13.9427285 C27.7599474,13.9427285 27.8559307,13.8851385 27.8559307,13.731108 C27.8559307,13.4810942 27.5099335,13.5007479 27.3175097,13.4810942 C26.2786039,13.3851108 26.451831,12.7310526 26.451831,11.9037673 L26.451831,5.47790859 Z" id="Fill-5" fill="#FFFFFF"></path>
                <path d="M33.0090499,12.1151593 L31.0464183,7.3059349 C30.9504349,7.07466066 30.7388144,6.59382964 30.7388144,6.34381579 C30.7388144,5.97816482 31.1044654,5.80493767 31.4504626,5.80493767 C31.5852964,5.80493767 31.9893407,5.8625277 31.9893407,5.63171053 C31.9893407,5.40135042 31.7969169,5.42054709 31.6236898,5.42054709 L28.1413213,5.42054709 C27.9877479,5.42054709 27.8529141,5.40135042 27.8529141,5.59331717 C27.8529141,5.80493767 28.0645346,5.80493767 28.2185651,5.80493767 C29.0266537,5.84333102 29.1226371,6.20898199 29.4110443,6.92108726 L32.2009612,13.6545499 L32.3165983,13.9041066 C32.335338,13.9813504 32.392928,14.0965305 32.4893684,14.0965305 C32.6433989,14.0965305 32.7782327,13.7121399 32.816626,13.6545499 L35.5676925,7.69032548 C35.8944931,6.97867729 36.2409474,5.92057479 37.1450194,5.80493767 C37.2990499,5.785741 37.6263075,5.785741 37.6263075,5.55492382 C37.6263075,5.38215374 37.529867,5.42054709 37.3758366,5.42054709 L34.5479834,5.42054709 C34.3939529,5.42054709 34.2595762,5.42054709 34.2595762,5.59331717 C34.2595762,5.80493767 34.6055734,5.80493767 34.7788006,5.80493767 C35.1247978,5.80493767 35.5292992,5.9393144 35.5292992,6.32461911 C35.5292992,6.55543629 35.3752687,6.94028393 35.2788283,7.15190443 L33.0090499,12.1151593 Z" id="Fill-7" fill="#FFFFFF"></path>
                <path d="M39.1291787,8.17138504 C38.9175582,8.17138504 38.4751205,8.22897507 38.4751205,7.92137119 C38.4751205,7.61331025 38.8019211,7.01729917 38.9559515,6.80522161 C39.5524197,5.99759003 40.4756884,5.51630194 41.4570042,5.51630194 C42.072669,5.51630194 42.7075305,5.67033241 43.1307715,6.11322715 C43.399982,6.40163435 43.6312562,6.84407202 43.6312562,7.24765928 C43.6312562,7.70975069 43.342392,7.92137119 42.919151,8.01735457 C42.3610762,8.15218837 41.2842341,8.17138504 40.6873089,8.17138504 L39.1291787,8.17138504 Z M44.9393726,8.63301939 C45.1313393,8.63301939 45.1701898,8.45979224 45.1701898,8.30576177 C45.1701898,7.67135734 44.8813255,6.84407202 44.4969349,6.36278393 C43.823223,5.53595568 42.7655776,5.17030471 41.7262147,5.17030471 C40.4180983,5.17030471 39.2256191,5.61274238 38.2635,6.45876731 C37.2437909,7.34409972 36.8781399,8.36380886 36.8781399,9.67238227 C36.8781399,12.0765374 38.744331,14.096759 41.2645803,14.096759 C42.4575166,14.096759 43.399982,13.7891551 44.304054,13.0194598 C44.4393449,12.9038227 45.0545526,12.3841413 45.0545526,12.1537812 C45.0545526,12.0765374 44.9969626,11.9997507 44.9009792,11.9997507 C44.6509654,11.9997507 43.938403,13.250277 42.0530152,13.250277 C39.7256468,13.250277 38.32109,11.3840859 38.32109,9.22948753 C38.32109,8.59462604 38.5135139,8.63301939 39.109982,8.63301939 L44.9393726,8.63301939 Z" id="Fill-9" fill="#FFFFFF"></path>
                <path d="M47.0965305,11.9035845 C47.0965305,12.7308698 47.2697576,13.384928 46.2308518,13.4809114 C46.0192313,13.5005651 45.6924307,13.4621717 45.6924307,13.7505789 C45.6924307,13.9041524 45.8268075,13.9430028 45.9616413,13.9430028 C46.5576524,13.9430028 47.1737742,13.8662161 47.7894391,13.8662161 C48.3662535,13.8662161 48.9819183,13.9430028 49.5975831,13.9430028 C49.7324169,13.9430028 49.8284003,13.8849557 49.8284003,13.7313823 C49.8284003,13.4809114 49.481946,13.5005651 49.2895222,13.4809114 C48.2506163,13.384928 48.4238435,12.7308698 48.4238435,11.9035845 L48.4238435,8.8641108 C48.4238435,8.09441551 48.3854501,7.59438781 48.8662812,6.94032964 C49.0779017,6.65146537 49.424356,6.24742105 49.847597,6.24742105 C50.386018,6.24742105 50.4248684,6.97872299 51.0789266,6.97872299 C51.5405609,6.97872299 51.8870152,6.69031579 51.8870152,6.2090277 C51.8870152,5.63175623 51.3673338,5.285759 50.7905194,5.285759 C49.4627493,5.285759 48.7122507,6.82469252 48.5198269,6.82469252 C48.3854501,6.82469252 48.4238435,6.4974349 48.4238435,6.4206482 L48.4238435,5.47772576 C48.4238435,5.34334903 48.4430402,5.17012188 48.2506163,5.17012188 C48.0965859,5.17012188 48.0010596,5.32415235 47.9046191,5.42013573 C47.5965582,5.7857867 46.7692729,6.2858144 46.3076385,6.4206482 C46.1344114,6.47869529 45.8652008,6.51663158 45.8652008,6.74790582 C45.8652008,6.86308587 45.980838,6.90193629 46.0964751,6.90193629 L46.3460319,6.90193629 C46.5000623,6.90193629 46.7884695,6.92113296 46.9041066,7.0555097 C47.1157271,7.26713019 47.0965305,8.01717175 47.0965305,8.28683934 L47.0965305,11.9035845 Z" id="Fill-11" fill="#FFFFFF"></path>
                <path d="M59.7153283,6.11304432 C59.792572,6.01660388 60.0233892,5.709 60.0233892,5.55496953 C60.0233892,5.38174238 59.792572,5.42013573 59.6769349,5.42013573 L54.9828906,5.42013573 C54.5020596,5.42013573 54.0015748,5.45852909 54.0015748,4.86251801 C54.0015748,4.72768421 53.9823781,4.55445706 53.809151,4.55445706 C53.6171842,4.55445706 53.5015471,4.97769806 53.4631537,5.09333518 L52.963126,6.55548199 C52.9434723,6.61307202 52.8282922,6.92113296 52.8282922,6.99791967 C52.8282922,7.09390305 52.9050789,7.15195014 53.0010623,7.15195014 C53.1550928,7.15195014 53.2515332,6.95952632 53.3283199,6.84434626 C53.5399404,6.53628532 53.9439848,6.2090277 54.2904391,6.05499723 C54.7520734,5.84337673 55.3485416,5.90142382 55.8293726,5.90142382 L57.7531537,5.90142382 C57.8495942,5.90142382 58.0799543,5.90142382 58.0799543,6.03580055 C58.0799543,6.15098061 57.9071842,6.38225485 57.8495942,6.45904155 L52.7318518,13.2308975 C52.6934584,13.3081413 52.4626413,13.5581551 52.4626413,13.6737922 C52.4626413,13.9621994 53.0010623,13.8662161 53.1550928,13.8662161 L59.6961316,13.8662161 C60.0809792,13.9041524 59.9849958,13.4233213 59.9849958,13.1925042 L60.0233892,12.2500388 C60.0233892,12.115205 60.1193726,11.5187368 59.850162,11.5187368 C59.6577382,11.5187368 59.6193449,11.7692078 59.5809515,11.9035845 C59.3885277,12.4040693 59.1961039,12.8652465 58.7152729,13.1349141 C58.2147881,13.4041247 57.3683061,13.4233213 56.7914917,13.4233213 L55.1177244,13.4233213 C55.0404806,13.4233213 54.4444695,13.4621717 54.4444695,13.2692909 C54.4444695,13.1349141 54.6748296,12.8652465 54.7520734,12.7884598 L59.7153283,6.11304432 Z" id="Fill-13" fill="#FFFFFF"></path>
                <path d="M65.8540139,9.3834723 C65.9120609,9.36427562 66.0080443,9.3066856 66.0656343,9.3066856 C66.2580582,9.3066856 66.2004681,9.76831994 66.2004681,9.84510665 L66.2004681,10.9996496 C66.2004681,11.634054 66.1812715,11.9613116 65.7196371,12.4421427 C65.2575457,12.903777 64.6039446,13.211838 63.9302327,13.211838 C63.2181274,13.211838 62.6029197,12.8269903 62.6029197,12.0769488 C62.6029197,11.153223 63.3529612,10.6527382 64.1030028,10.2683476 L65.8540139,9.3834723 Z M64.0070194,9.88395706 C62.9297202,10.3839848 61.1599695,11.2112701 61.1599695,12.5769765 C61.1599695,13.5386385 62.0640416,14.0967133 62.9681136,14.0967133 C64.642338,14.0967133 65.8924072,12.6345665 66.0656343,12.6345665 C66.3353019,12.6345665 66.4312853,13.9815332 67.3737507,13.9815332 C67.8737784,13.9815332 68.3550665,13.692669 68.7394571,13.4234584 C68.8742909,13.3078213 69.2015485,13.0386108 69.2015485,12.8269903 C69.2015485,12.7497465 69.1435014,12.6729598 69.0667147,12.6729598 C68.8934875,12.6729598 68.681867,13.1542479 68.201036,13.1542479 C67.5085845,13.1542479 67.5277812,12.0385554 67.5277812,11.6153144 L67.5277812,7.07484349 C67.5277812,6.55561911 67.6050249,6.07433102 67.1429335,5.6702867 C66.7004958,5.28543906 65.9883906,5.170259 65.3923795,5.170259 C64.1610499,5.170259 62.8529335,5.68994044 61.9488615,6.49757202 C61.5832105,6.8051759 61.1403158,7.36325069 61.1403158,7.86373546 C61.1403158,8.05615928 61.2367562,8.09455263 61.3903296,8.09455263 C61.6216039,8.09455263 62.0256482,7.94052216 62.218072,7.84453878 C62.5256759,7.70970499 62.6221163,7.44049446 62.7569501,7.15163019 C63.1993878,6.17077147 63.7953989,5.53590997 64.9691385,5.53590997 C66.1620748,5.53590997 66.2004681,6.32480194 66.2004681,7.26726731 L66.2004681,8.11374931 C66.2004681,8.84459418 66.1812715,8.86379086 65.4883629,9.19104848 L64.0070194,9.88395706 Z" id="Fill-15" fill="#FFFFFF"></path>
                <path d="M80.2635873,7.13252493 C80.4368144,6.69008726 80.6292382,6.22845291 80.6292382,5.74762188 C80.6292382,5.30472715 80.3984211,5.0547133 79.9559834,5.0547133 C79.4554986,5.0547133 78.8402909,5.45875762 78.4549861,5.74762188 C77.8393213,6.20925623 77.5125208,6.53605679 77.0700831,7.15172161 C77.0124931,7.24770499 76.8200693,7.4981759 76.8200693,7.61335596 C76.8200693,7.69059972 76.8584626,7.76738643 76.9352493,7.76738643 C77.0316898,7.76738643 77.1281302,7.65174931 77.1665235,7.59415928 C77.4165374,7.2097687 78.4549861,5.99763573 78.9362742,5.99763573 C79.1095014,5.99763573 79.2059418,6.11327285 79.2059418,6.28604294 C79.2059418,6.49766343 78.9938643,6.94010111 78.9170776,7.13252493 L77.5317175,10.5568463 C77.3397507,11.0381343 76.9932964,11.9422064 76.9932964,12.4422341 C76.9932964,13.6351704 77.6277008,14.0968047 78.7438504,14.0968047 C81.8989612,14.0968047 85.1308587,9.11389612 85.1308587,6.24764958 C85.1308587,5.78601524 84.9379778,4.86228947 84.3424238,4.86228947 C83.9379224,4.86228947 83.6879086,5.36231717 83.6879086,5.70877147 C83.6879086,6.09361911 83.8615928,6.36282964 84.0540166,6.65169391 C84.2272438,6.92090443 84.2848338,7.11332825 84.2848338,7.44012881 C84.2848338,9.49874377 81.5141136,13.4619432 79.3019252,13.4619432 C78.7246537,13.4619432 78.3206094,13.0195055 78.3206094,12.4614307 C78.3206094,11.9997964 78.5322299,11.4417216 78.7054571,10.9992839 L80.2635873,7.13252493 Z" id="Fill-17" fill="#FFFFFF"></path>
                <path d="M98.5229169,11.807144 C98.5617673,11.6727673 98.638097,11.4414931 98.638097,11.2879197 C98.638097,11.1722825 98.5617673,11.1146925 98.4461302,11.1146925 C98.2345097,11.1146925 98.1184155,11.4611468 98.0420859,11.6151773 C97.0996205,13.5385014 95.7138033,13.384928 93.8480693,13.384928 C93.5212687,13.384928 93.0596343,13.4621717 93.0596343,13.0000803 C93.0596343,12.8273102 93.1551607,12.5192493 93.2132078,12.3464792 L95.8294404,3.82361219 C96.1178476,2.89988643 96.2330277,2.3422687 97.5224044,2.36100831 C97.7148283,2.36100831 98.0996759,2.39985873 98.0996759,2.11099446 C98.0996759,1.89937396 97.906795,1.88017729 97.7340249,1.88017729 C96.9839834,1.89937396 96.2142881,1.95696399 95.4637895,1.95696399 C94.8673213,1.95696399 94.2713102,1.89937396 93.6748421,1.88017729 C93.5212687,1.88017729 93.078374,1.78419391 93.078374,2.03420776 C93.078374,2.32261496 93.3475845,2.38066205 93.559205,2.36100831 C93.9632493,2.30341828 94.5016704,2.28467867 94.5016704,2.86195014 C94.5016704,3.11150693 94.3476399,3.57314127 94.2713102,3.80441551 L91.7894543,11.9035845 C91.6550776,12.3268255 91.5010471,12.9424903 91.1353961,13.2117008 C90.8661856,13.4233213 90.4429446,13.4233213 90.1152299,13.4233213 C89.9040665,13.442518 89.6156593,13.442518 89.6156593,13.7313823 C89.6156593,13.9813961 90.4228338,13.8662161 90.6349114,13.8662161 L97.1956039,13.8662161 C97.8684017,13.8662161 97.8880554,13.8662161 98.0800222,13.2500942 L98.5229169,11.807144 Z" id="Fill-19" fill="#FFFFFF"></path>
                <path d="M103.582749,7.15172161 C103.698386,6.80526731 103.910007,6.11281579 103.910007,5.7663615 C103.910007,5.3431205 103.774716,5.0547133 103.313082,5.0547133 C102.582237,5.0547133 101.543788,5.99763573 101.0625,6.45881302 C100.908012,6.59364681 100.100381,7.44012881 100.100381,7.69059972 C100.100381,7.78704017 100.139231,7.84463019 100.235672,7.84463019 C100.485229,7.84463019 101.543788,6.17040582 102.217043,6.17040582 C102.39027,6.17040582 102.44786,6.36282964 102.44786,6.51640305 C102.44786,6.67043352 102.312569,6.99769114 102.274176,7.15172161 L99.4458657,16.4054335 C99.2726385,17.0019017 99.061018,17.9635637 98.2725831,17.9635637 C97.4649515,17.9635637 97.5412812,16.7710845 96.7528463,16.7710845 C96.3871953,16.7710845 96.0992452,17.0786884 96.0992452,17.4443393 C96.0992452,18.1751842 96.9836634,18.4060014 97.5801316,18.4060014 C98.4266136,18.4060014 99.2927493,17.9827604 99.8887604,17.3867493 C100.658456,16.5978573 101.081697,15.4049211 101.389758,14.3852119 L103.582749,7.15172161 Z M104.948913,2.55366066 C104.948913,2.18846676 104.717181,1.88040582 104.333248,1.88040582 C103.774716,1.88040582 103.351475,2.61125069 103.351475,3.09253878 C103.351475,3.47692936 103.544356,3.82338366 103.947943,3.82338366 C104.544411,3.82338366 104.948913,3.09253878 104.948913,2.55366066 L104.948913,2.55366066 Z" id="Fill-21" fill="#FFFFFF"></path>
                <path d="M112.314266,8.96009418 L111.467327,11.691964 C111.333407,12.1535983 111.122244,12.9036399 111.122244,13.384928 C111.122244,13.7121856 111.237424,14.0965762 111.641011,14.0965762 C112.54554,14.0965762 113.718366,13.1349141 114.276898,12.5000526 C114.430928,12.3268255 115.257299,11.2879197 115.257299,11.0182521 C115.257299,10.9419224 115.200166,10.8843324 115.122922,10.8843324 C115.026939,10.8843324 114.950609,11.0182521 114.892562,11.0954958 C114.584958,11.6151773 113.526399,13.0000803 112.872341,13.0000803 C112.66072,13.0000803 112.56428,12.7884598 112.56428,12.6156898 C112.56428,12.3844155 112.66072,12.0384183 112.737507,11.807144 L114.603698,5.709 C114.642548,5.59336288 114.718878,5.38174238 114.718878,5.24690859 C114.718878,4.95895845 114.219307,5.05494183 114.065277,5.05494183 C113.333975,5.05494183 113.468352,5.15092521 113.257188,5.86257341 C112.66072,7.78681163 111.717798,9.49851524 110.390942,11.0182521 C109.852064,11.6535706 108.255083,13.2308975 107.351468,13.2308975 C107.004557,13.2308975 106.831787,13.019277 106.831787,12.6924765 C106.831787,12.4232659 106.965706,12.0187645 107.043407,11.7692078 L108.581884,7.17114681 C108.717175,6.78629917 108.871205,6.30501108 108.871205,5.90142382 C108.871205,5.4973795 108.735914,5.05494183 108.255083,5.05494183 C107.543435,5.05494183 106.581316,5.88177008 106.138421,6.32466482 C105.946454,6.53628532 105.100429,7.57519114 105.100429,7.90199169 C105.100429,7.97877839 105.119169,8.01717175 105.195956,8.01717175 C105.36964,8.01717175 105.54241,7.70956787 105.620111,7.59438781 C105.869668,7.22873684 106.735346,6.09339058 107.235831,6.09339058 C107.447452,6.09339058 107.504584,6.24742105 107.504584,6.4206482 C107.504584,6.61307202 107.351468,6.99791967 107.292964,7.17114681 L105.792424,11.5379335 C105.63885,11.9808283 105.42723,12.6348864 105.42723,13.0965208 C105.42723,13.6737922 105.63885,14.0965762 106.254515,14.0965762 C107.427798,14.0965762 108.735914,13.1152604 109.563199,12.3652188 C110.736482,11.3071163 111.295014,10.422241 112.179889,9.15251801 L112.314266,8.96009418 Z" id="Fill-23" fill="#FFFFFF"></path>
                <g id="Group-27" transform="translate(116.551247, 0.315374)">
                    <mask id="mask-2" fill="white">
                        <use xlink:href="#path-1"></use>
                    </mask>
                    <g id="Clip-26"></g>
                    <path d="M7.78996537,7.31749861 C7.78996537,9.62612742 5.40363573,13.4544931 2.86510388,13.4544931 C2.07621191,13.4544931 1.44135042,13.0696454 1.44135042,12.2227064 C1.44135042,10.3953657 4.73129501,5.62407756 6.71220914,5.62407756 C7.59708449,5.62407756 7.78996537,6.62459003 7.78996537,7.31749861 L7.78996537,7.31749861 Z M0.864536011,9.29886981 C0.652915512,10.0109751 0.363594183,10.7802133 0.363594183,11.5499086 C0.363594183,13.0696454 1.46009003,13.7812936 2.90304017,13.7812936 C6.15504848,13.7812936 9.23200139,10.5489391 9.23200139,7.31749861 C9.23200139,6.10536565 8.67484072,4.73920222 7.27028393,4.73920222 C5.40363573,4.73920222 3.07626731,7.60590582 2.23024238,9.12564266 L4.88441136,0.333565097 C4.88441136,0.199188366 4.82682133,0.141598338 4.71164127,0.141598338 C4.63531163,0.141598338 4.5576108,0.17999169 4.51967452,0.218385042 C3.84550554,0.641626039 3.30662742,0.699216066 2.53784626,0.699216066 C2.34542244,0.699216066 1.94092105,0.738066482 1.94092105,1.00681994 C1.94092105,1.23809418 2.49945291,1.19970083 2.61463296,1.19970083 C2.92269391,1.19970083 3.1343144,1.27603047 3.1343144,1.64168144 C3.1343144,1.87295568 2.98028393,2.37298338 2.90304017,2.60380055 L0.864536011,9.29886981 Z" id="Fill-25" fill="#FFFFFF" mask="url(#mask-2)"></path>
                </g>
                <g id="Group-30" transform="translate(126.606648, 0.315374)">
                    <mask id="mask-4" fill="white">
                        <use xlink:href="#path-3"></use>
                    </mask>
                    <g id="Clip-29"></g>
                    <path d="M0.352396122,11.3382424 C0.198365651,11.8382701 0.00548476454,12.4923283 0.00548476454,13.0312064 C0.00548476454,13.473644 0.101925208,13.7812479 0.602409972,13.7812479 C1.41004155,13.7812479 2.50699446,12.6655554 2.94897507,12.1079377 C3.14185596,11.8771205 3.75752078,11.0882285 3.75752078,10.7417742 C3.75752078,10.6645305 3.73740997,10.6069404 3.66108033,10.6069404 C3.50704986,10.6069404 3.43026316,10.7605139 3.37221607,10.8569543 C3.14185596,11.2614557 2.1600831,12.6079654 1.69844875,12.6079654 C1.50648199,12.6079654 1.42878116,12.4342812 1.42878116,12.2811648 C1.42878116,12.0114972 1.54487535,11.7422867 1.62166205,11.5114695 L4.91206371,0.776414127 C4.93080332,0.69917036 5.02724377,0.410763158 5.02724377,0.314322715 C5.02724377,0.218339335 4.96965374,0.141552632 4.8732133,0.141552632 C4.81562327,0.141552632 4.7383795,0.199142659 4.70044321,0.218339335 C4.06512465,0.69917036 3.25657895,0.910790859 2.48779778,0.949641274 C2.29537396,0.949641274 1.91006925,0.930444598 1.91006925,1.19965512 C1.91006925,1.33403186 2.00605263,1.41127562 2.14134349,1.41127562 L2.44940443,1.39207895 C2.77620499,1.37242521 3.19898892,1.43001524 3.19898892,1.87290997 C3.19898892,2.04568006 3.06461219,2.48857479 3.00747922,2.66180194 L0.352396122,11.3382424 Z" id="Fill-28" fill="#FFFFFF" mask="url(#mask-4)"></path>
                </g>
                <path d="M135.441964,7.15172161 C135.557144,6.80526731 135.768765,6.11281579 135.768765,5.7663615 C135.768765,5.3431205 135.634388,5.0547133 135.172753,5.0547133 C134.441452,5.0547133 133.402546,5.99763573 132.921715,6.45881302 C132.767684,6.59364681 131.959139,7.44012881 131.959139,7.69059972 C131.959139,7.78704017 131.997989,7.84463019 132.094429,7.84463019 C132.3449,7.84463019 133.402546,6.17040582 134.076258,6.17040582 C134.249028,6.17040582 134.306618,6.36282964 134.306618,6.51640305 C134.306618,6.67043352 134.172241,6.99769114 134.133848,7.15172161 L131.305537,16.4054335 C131.13231,17.0019017 130.92069,17.9635637 130.131798,17.9635637 C129.323709,17.9635637 129.400496,16.7710845 128.612518,16.7710845 C128.24641,16.7710845 127.958003,17.0786884 127.958003,17.4443393 C127.958003,18.1751842 128.842878,18.4060014 129.438889,18.4060014 C130.286285,18.4060014 131.151507,17.9827604 131.747518,17.3867493 C132.51767,16.5978573 132.940454,15.4049211 133.248515,14.3852119 L135.441964,7.15172161 Z M136.80767,2.55366066 C136.80767,2.18846676 136.576853,1.88040582 136.192006,1.88040582 C135.634388,1.88040582 135.211147,2.61125069 135.211147,3.09253878 C135.211147,3.47692936 135.403114,3.82338366 135.807615,3.82338366 C136.403169,3.82338366 136.80767,3.09253878 136.80767,2.55366066 L136.80767,2.55366066 Z" id="Fill-31" fill="#FFFFFF"></path>
                <path d="M144.481039,6.42060249 C144.481039,7.30547784 142.903712,9.49846953 142.364834,10.1721814 C141.691122,11.0186634 139.978961,13.0772784 138.805679,13.0772784 C138.190014,13.0772784 137.920346,12.4424169 137.920346,11.9035388 C137.920346,10.6914058 138.94097,8.74842798 139.671814,7.82470222 C140.479446,6.76705679 141.845152,5.42009003 143.250166,5.42009003 C143.904224,5.42009003 144.481039,5.70895429 144.481039,6.42060249 L144.481039,6.42060249 Z M144.769903,5.72769391 C144.365402,5.20892659 143.942161,5.05489612 143.289017,5.05489612 C141.537548,5.05489612 139.805734,6.1509349 138.632909,7.38226454 C137.536413,8.53680748 136.42072,10.4797853 136.42072,12.1151593 C136.42072,13.0576247 136.862701,14.0965305 137.940457,14.0965305 C140.210235,14.0965305 142.788075,10.4221953 143.865831,8.6524446 L142.692091,12.4616136 C142.595651,12.7888712 142.480014,13.1732618 142.480014,13.5384557 C142.480014,13.8661704 142.654155,14.0965305 142.999695,14.0965305 C143.769391,14.0965305 144.808753,13.1924584 145.289127,12.6732341 C145.519488,12.4232202 146.309294,11.4227078 146.309294,11.0757964 C146.309294,10.9994668 146.250789,10.9226801 146.17446,10.9226801 C146.039169,10.9226801 145.905249,11.1722368 145.846745,11.2686773 C145.615928,11.6343283 144.712313,12.8464612 144.231482,12.8464612 C144.077452,12.8464612 144.038601,12.7120845 144.038601,12.558054 C144.038601,12.3843698 144.153781,12.0767659 144.192632,11.9227355 L146.17446,5.42009003 C146.193199,5.34330332 146.2709,5.13168283 146.2709,5.03569945 C146.2709,4.76603186 145.731565,4.8624723 145.615928,4.8624723 C144.981524,4.8624723 145.020374,4.95891274 144.827493,5.55492382 L144.769903,5.72769391 Z" id="Fill-33" fill="#FFFFFF"></path>
                <path d="M157.237733,7.53647784 C157.391763,7.13243352 157.603384,6.57435873 157.603384,6.13192105 C157.603384,5.43946953 157.064963,5.05462188 156.410904,5.05462188 C153.929048,5.05462188 151.67801,8.44054986 150.620364,10.364331 L150.581514,10.3259377 L151.408799,7.69050831 C151.56283,7.17082687 151.7356,6.55516205 151.7356,5.99754432 C151.7356,5.43946953 151.543176,5.05462188 150.946708,5.05462188 C150.139533,5.05462188 149.139021,6.016741 148.65819,6.5935554 C148.503702,6.74758587 147.830904,7.63291828 147.830904,7.84453878 C147.830904,7.94052216 147.907234,7.97891551 147.984935,7.97891551 C148.100115,7.97891551 148.157705,7.86373546 148.196555,7.76729501 C148.426916,7.36325069 149.484561,6.07433102 149.985503,6.07433102 C150.273453,6.07433102 150.369893,6.28595152 150.369893,6.53596537 C150.369893,6.86322299 150.235517,7.28646399 150.139533,7.59406787 L148.426916,13.1926413 C148.388065,13.2890817 148.311735,13.5386385 148.311735,13.6350789 C148.311735,13.9623366 148.715323,13.8663532 148.907289,13.8663532 C149.523411,13.8663532 149.523411,13.7699127 149.696181,13.211838 C150.158273,11.7112978 151.639616,9.15265512 152.659325,7.94052216 C153.255337,7.24761357 154.467927,5.82431717 155.487636,5.82431717 C155.929616,5.82431717 156.161348,6.07433102 156.161348,6.49757202 C156.161348,6.84402632 156.007317,7.20967729 155.89168,7.53647784 L154.525517,11.1724197 C154.294699,11.7693449 154.006292,12.5769765 154.006292,13.2310346 C154.006292,13.7891094 154.255849,14.0967133 154.833578,14.0967133 C155.622012,14.0967133 156.776098,12.9810208 157.276583,12.422946 C157.430614,12.2689155 158.142262,11.3840402 158.142262,11.1340263 C158.142262,11.0572396 158.065475,10.9996496 158.007885,10.9996496 C157.892705,10.9996496 157.815004,11.1148296 157.777068,11.1920734 C157.449353,11.6729044 156.372511,13.0194141 155.756846,13.0194141 C155.525572,13.0194141 155.391195,12.8850374 155.391195,12.6345665 C155.391195,12.365356 155.584076,11.9037216 155.68006,11.6537078 L157.237733,7.53647784 Z" id="Fill-35" fill="#FFFFFF"></path>
                <g id="Group-39" transform="translate(159.515235, 1.686565)" fill="#FFFFFF">
                    <path d="M5.03505956,0.867278393 C5.03505956,0.501627424 4.78458864,0.193566482 4.399741,0.193566482 C3.84212327,0.193566482 3.41888227,0.924868421 3.41888227,1.42489612 C3.41888227,1.79054709 3.61084903,2.13700139 4.01489335,2.13700139 C4.61181856,2.13700139 5.03505956,1.40569945 5.03505956,0.867278393 L5.03505956,0.867278393 Z M0.99415928,9.94776316 C0.859782548,10.4093975 0.64816205,11.1406994 0.64816205,11.6402701 C0.64816205,12.0831648 0.744602493,12.4099654 1.24508726,12.4099654 C2.0531759,12.4099654 3.13047507,11.2942729 3.59165235,10.7174584 C3.78453324,10.4669875 4.399741,9.67855263 4.399741,9.35129501 C4.399741,9.27450831 4.38008726,9.21691828 4.28456094,9.21691828 C4.15018421,9.21691828 4.07339751,9.35129501 4.01489335,9.46647507 C3.78453324,9.85132271 2.80276039,11.2174861 2.32238643,11.2174861 C2.14961634,11.2174861 2.07191551,11.0634557 2.07191551,10.8714889 C2.07191551,10.621018 2.16835596,10.3518075 2.24514266,10.1017936 L3.66935319,5.48453601 C3.78453324,5.13808172 3.99615374,4.44563019 3.99615374,4.07997922 C3.99615374,3.65673823 3.86086288,3.36833102 3.39922853,3.36833102 C2.66792659,3.36833102 1.61028116,4.3107964 1.12899307,4.77243075 C0.974962604,4.92646122 0.186527701,5.77248615 0.186527701,6.02295706 C0.186527701,6.11939751 0.225378116,6.17698753 0.302621884,6.17698753 C0.551721607,6.17698753 1.6299349,4.48402355 2.28353601,4.48402355 C2.47595983,4.48402355 2.51435319,4.67644737 2.51435319,4.83002078 C2.51435319,5.00370499 2.39917313,5.33050554 2.36123684,5.48453601 L0.99415928,9.94776316 Z" id="Fill-37"></path>
                </g>
                <mask id="mask-6" fill="white">
                    <use xlink:href="#path-5"></use>
                </mask>
                <g id="Clip-41"></g>
                <polygon id="Fill-40" fill="#DF3227" mask="url(#mask-6)" points="56.0446953 164.85831 110.436191 164.85831 110.436191 110.467271 56.0446953 110.467271"></polygon>
                <path d="M74.0898449,108.703783 L56.0435983,108.703325 L56.0435983,98.2324529 L56.3804543,98.2324529 L56.3804543,108.202384 L74.0898449,108.202384 L74.0898449,108.703783 Z M75.2544432,108.704697 L78.0169363,108.704697 L78.0169363,108.202384 L75.2544432,108.202384 L75.2544432,108.704697 Z M84.0341801,108.705154 L79.1819917,108.704697 L79.1819917,108.202384 L84.0341801,108.202384 L84.0341801,108.705154 Z M85.1996925,108.705154 L88.6582936,108.705154 L88.6582936,108.202384 L85.1996925,108.202384 L85.1996925,108.705154 Z M89.822892,108.705154 L90.5743047,108.705154 L90.5743047,108.202384 L89.822892,108.202384 L89.822892,108.705154 Z M110.44972,108.706525 L91.7393601,108.705154 L91.7393601,108.202384 L109.83177,108.202384 L109.831313,98.7813864 L110.44972,98.7813864 L110.44972,108.706525 Z M109.831313,97.6766634 L110.450177,97.6766634 L110.450177,85.7230762 L109.831313,85.7230762 L109.831313,97.6766634 Z M93.4967701,84.6901122 L109.593183,84.6901122 L109.593183,85.169572 L93.4967701,84.6901122 Z M81.9929335,86.2560125 C82.1702742,86.0197105 82.6657313,85.6746274 83.2507729,85.6746274 C83.983446,85.6746274 84.5771717,86.2153338 84.5771717,86.4059294 L84.5817424,89.8092258 L83.9633352,89.8092258 L83.9601357,86.6074945 C83.9601357,86.4379238 83.5282105,85.958464 82.8782659,85.958464 C82.5254127,85.958464 82.2091247,86.0992396 81.9929335,86.2560125 L81.9929335,86.2560125 Z M81.5719778,79.1249044 L83.2215208,77.9123144 L84.4048587,78.7066911 C84.7458283,78.9749875 84.9835014,79.3474945 84.9835014,79.8146136 L84.9835014,81.661608 L84.4775319,81.661608 L84.4775319,79.8086717 C84.4775319,79.4091981 84.2736814,79.0901676 83.9807036,78.8607216 L82.9683075,78.1810679 L81.5719778,79.1249044 Z M84.3075042,68.8263449 L84.3088753,66.7869266 L81.6217978,66.2969543 L84.8134737,66.2969543 L84.8148449,68.8263449 L84.3075042,68.8263449 Z M83.0569778,64.0180346 L83.3942909,64.0180346 L83.3942909,54.3342258 L83.0569778,54.3342258 L83.0569778,64.0180346 Z M81.38641,69.4091011 L84.9172271,69.4091011 L87.5883075,71.5563864 L86.8826011,71.5563864 L84.5547756,69.6577438 L81.38641,69.4091011 Z M78.1846787,72.1459986 L87.7034875,72.1459986 L89.535856,79.5764834 L89.0298864,79.5705416 L87.2386537,72.471428 L78.1846787,72.1459986 Z M56.0161745,96.2346274 L56.3530305,96.2346274 L56.3530305,85.4694058 L56.0161745,85.4694058 L56.0161745,96.2346274 Z M90.8535706,107.598602 L91.4619224,107.598602 L91.4619224,98.7813864 L90.8535706,98.7813864 L90.8535706,107.598602 Z M75.6507175,97.7141427 L90.5788753,97.7141427 L90.5788753,98.218741 L75.6507175,97.7141427 Z M107.530911,80.2040319 L105.893252,75.5712341 L90.2621302,75.1868435 L106.284956,75.1868435 L108.098584,80.2031177 L107.530911,80.2040319 Z M79.8022271,78.6797244 L83.2256343,76.4739349 L86.7569086,78.6797244 L86.7569086,82.2114557 L86.1394155,82.2114557 L86.1394155,78.7999321 L83.2256343,76.6946967 L79.8022271,78.6797244 Z M82.9696787,73.5053061 C82.9696787,73.3649875 83.0834875,73.2516357 83.2238061,73.2516357 C83.3636676,73.2516357 83.4774765,73.3649875 83.4774765,73.5053061 C83.4774765,73.6456247 83.3636676,73.7589765 83.2238061,73.7589765 C83.0834875,73.7589765 82.9696787,73.6456247 82.9696787,73.5053061 L82.9696787,73.5053061 Z M82.5647202,75.8244474 L82.6469917,75.4226884 L83.502615,75.4249737 L83.222892,74.2311233 L83.9020886,75.8244474 L82.5647202,75.8244474 Z M79.5851219,75.4491981 C79.5851219,75.327162 79.6843047,75.2275222 79.8063407,75.2275222 C79.9288338,75.2275222 80.0280166,75.327162 80.0280166,75.4491981 C80.0280166,75.5716911 79.9288338,75.670874 79.8063407,75.670874 C79.6843047,75.670874 79.5851219,75.5716911 79.5851219,75.4491981 L79.5851219,75.4491981 Z M79.3593324,77.2719681 L79.3867562,76.9428823 L80.059554,76.9451676 L79.8771856,76.0200706 L80.411036,77.2719681 L79.3593324,77.2719681 Z M60.2252742,89.8229377 L59.7165623,89.8243089 L59.7170194,87.1486579 L58.810205,86.9749737 L60.2252742,86.9749737 L60.2252742,89.8229377 Z M74.3590554,96.2359986 L74.3585983,85.7230762 L74.9610083,85.7230762 L74.9610083,96.2346274 L74.3590554,96.2359986 Z M58.0076011,84.6901122 L74.0829889,84.6901122 L74.0829889,85.0996413 L58.0076011,84.6901122 Z M74.3663684,107.598602 L74.3659114,98.7813864 L74.9610083,98.7813864 L74.9610083,107.598602 L74.3663684,107.598602 Z M58.0076011,97.7082008 L74.0829889,97.7082008 L74.0829889,98.1145305 L58.0076011,97.7082008 Z M58.5825873,80.4910679 L60.1855097,75.2275222 L76.486687,75.2275222 L76.486687,75.6073421 L60.4323241,75.6073421 L58.5825873,80.4910679 Z M108.916729,98.3019266 L91.9496094,97.7082008 L108.903017,97.7082008 L108.916729,98.3019266 Z M64.4512853,89.8229377 L63.9430305,89.8243089 L63.9434875,87.1486579 L63.0371302,86.9749737 L64.4512853,86.9749737 L64.4512853,89.8229377 Z M68.5653158,89.8229377 L68.0570609,89.8243089 L68.057518,87.1486579 L67.1507036,86.9749737 L68.5653158,86.9749737 L68.5653158,89.8229377 Z M72.699,89.8229377 L72.1907452,89.8243089 L72.1912022,87.1486579 L71.2843878,86.9749737 L72.699,86.9749737 L72.699,89.8229377 Z M78.6339723,89.8229377 L78.1257175,89.8243089 L78.1261745,87.1486579 L77.2193601,86.9749737 L78.6339723,86.9749737 L78.6339723,89.8229377 Z M89.2044848,89.8229377 L88.6957729,89.8243089 L88.6962299,87.1486579 L87.7889584,86.9749737 L89.2044848,86.9749737 L89.2044848,89.8229377 Z M94.6430859,89.8229377 L94.134831,89.8243089 L94.134831,87.1486579 L93.2284737,86.9749737 L94.6430859,86.9749737 L94.6430859,89.8229377 Z M98.869554,89.8229377 L98.3612992,89.8243089 L98.3622133,87.1486579 L97.4553989,86.9749737 L98.869554,86.9749737 L98.869554,89.8229377 Z M102.983127,89.8229377 L102.474873,89.8243089 L102.475787,87.1486579 L101.569429,86.9749737 L102.983127,86.9749737 L102.983127,89.8229377 Z M107.116812,89.8229377 L106.609471,89.8243089 L106.609471,87.1486579 L105.703114,86.9749737 L107.116812,86.9749737 L107.116812,89.8229377 Z M60.2252742,102.573644 L59.7165623,102.575015 L59.7170194,99.8989072 L58.810205,99.7247659 L60.2252742,99.7247659 L60.2252742,102.573644 Z M64.4512853,102.573644 L63.9430305,102.575015 L63.9434875,99.8989072 L63.0371302,99.7247659 L64.4512853,99.7247659 L64.4512853,102.573644 Z M68.5653158,102.573644 L68.0570609,102.575015 L68.057518,99.8989072 L67.1507036,99.7247659 L68.5653158,99.7247659 L68.5653158,102.573644 Z M72.699,102.573644 L72.1907452,102.575015 L72.1912022,99.8989072 L71.2843878,99.7247659 L72.699,99.7247659 L72.699,102.573644 Z M94.6430859,102.573644 L94.134831,102.575015 L94.134831,99.8989072 L93.2284737,99.7247659 L94.6430859,99.7247659 L94.6430859,102.573644 Z M98.869554,102.573644 L98.3612992,102.575015 L98.3622133,99.8989072 L97.4553989,99.7247659 L98.869554,99.7247659 L98.869554,102.573644 Z M102.983127,102.573644 L102.474873,102.575015 L102.475787,99.8989072 L101.569429,99.7247659 L102.983127,99.7247659 L102.983127,102.573644 Z M107.116812,102.573644 L106.609471,102.575015 L106.609471,99.8989072 L105.703114,99.7247659 L107.116812,99.7247659 L107.116812,102.573644 Z M60.2252742,107.211927 L59.7165623,107.212841 L59.7170194,105.257065 L58.810205,105.082924 L60.2252742,105.082924 L60.2252742,107.211927 Z M64.4512853,107.211927 L63.9430305,107.212841 L63.9434875,105.257065 L63.0371302,105.082924 L64.4512853,105.082924 L64.4512853,107.211927 Z M68.5653158,107.211927 L68.0570609,107.212841 L68.057518,105.257065 L67.1507036,105.082924 L68.5653158,105.082924 L68.5653158,107.211927 Z M72.699,107.211927 L72.1907452,107.212841 L72.1912022,105.257065 L71.2843878,105.082924 L72.699,105.082924 L72.699,107.211927 Z M94.6430859,107.211927 L94.134831,107.212841 L94.134831,105.257065 L93.2284737,105.082924 L94.6430859,105.082924 L94.6430859,107.211927 Z M98.869554,107.211927 L98.3612992,107.212841 L98.3622133,105.257065 L97.4553989,105.082924 L98.869554,105.082924 L98.869554,107.211927 Z M102.983127,107.211927 L102.474873,107.212841 L102.475787,105.257065 L101.569429,105.082924 L102.983127,105.082924 L102.983127,107.211927 Z M107.116812,107.211927 L106.609471,107.212841 L106.609471,105.257065 L105.703114,105.082924 L107.116812,105.082924 L107.116812,107.211927 Z M76.3568809,83.4436994 L75.8568532,83.4528407 L75.8568532,80.6903476 L75.0053435,80.4385055 L76.3568809,80.4385055 L76.3568809,83.4436994 Z M76.3568809,79.5632285 L75.1127535,79.5632285 L75.1127535,79.0741704 L75.8116039,79.0741704 L75.4660637,77.0580623 L76.3568809,79.5632285 Z M91.430385,83.4436994 L90.9303573,83.4528407 L90.9303573,80.6903476 L90.0788476,80.4385055 L91.430385,80.4385055 L91.430385,83.4436994 Z M91.430385,79.5632285 L90.1858006,79.5632285 L90.1858006,79.0741704 L90.885108,79.0741704 L90.5395679,77.0580623 L91.430385,79.5632285 Z M110.44972,83.8911648 L109.954263,83.8911648 L109.954263,80.6418989 L108.681798,80.1446136 L110.44972,80.1446136 L110.44972,83.8911648 Z M110.44972,79.5390042 L108.775496,79.5390042 L108.775496,79.0650291 L109.869249,79.0650291 L109.427269,75.9944751 L110.44972,79.5390042 Z M57.5944155,83.8911648 L57.0998726,83.8911648 L57.0994155,80.6418989 L55.8264931,80.1446136 L57.5944155,80.1446136 L57.5944155,83.8911648 Z M57.5944155,79.5390042 L55.9201911,79.5390042 L55.9201911,79.0650291 L57.0144017,79.0650291 L56.5724211,75.9944751 L57.5944155,79.5390042 Z M86.2984737,75.4491981 C86.2984737,75.327162 86.3981136,75.2275222 86.5210637,75.2275222 C86.6426427,75.2275222 86.7418255,75.327162 86.7418255,75.4491981 C86.7418255,75.5716911 86.6426427,75.670874 86.5210637,75.670874 C86.3981136,75.670874 86.2984737,75.5716911 86.2984737,75.4491981 L86.2984737,75.4491981 Z M86.0534875,77.2719681 L86.0804543,76.9428823 L86.7541662,76.9451676 L86.5713407,76.0200706 L87.1047341,77.2719681 L86.0534875,77.2719681 Z M84.9382521,107.598602 L84.277338,107.598602 L84.2736814,101.211594 C84.2791662,100.274614 83.6301357,99.6237548 82.8279889,99.6237548 C82.4650803,99.6237548 82.1341662,99.7563033 81.8791247,99.9756939 C82.190385,99.5661648 82.6830997,99.3024391 83.2370609,99.3024391 C84.1776981,99.3024391 84.9409945,100.065278 84.9409945,101.006373 L84.9382521,107.598602 Z M89.4878643,107.598602 L88.9608698,107.598602 L88.9581274,101.547993 C88.9631551,100.82309 88.510205,100.319863 87.9525873,100.319863 C87.6682936,100.319863 87.412338,100.449669 87.2285983,100.658547 C87.4543878,100.305237 87.8250665,100.074877 88.2441939,100.074877 C88.9325319,100.074877 89.4896925,100.693741 89.4896925,101.457952 L89.4878643,107.598602 Z M78.8817008,107.598602 L78.3551634,107.598602 L78.3524211,101.547993 C78.3565346,100.82309 77.9040416,100.319863 77.3459668,100.319863 C77.0625873,100.319863 76.8061745,100.449669 76.6224349,100.658547 C76.8482244,100.305237 77.2193601,100.074877 77.6384875,100.074877 C78.3263684,100.074877 78.8835291,100.693741 78.8835291,101.457952 L78.8817008,107.598602 Z M89.2163684,96.2346274 L88.7305097,96.2346274 L88.7291385,93.1380208 C88.7318809,92.8263033 88.5147756,92.6096551 88.2483075,92.6096551 C88.108903,92.6096551 87.9832105,92.6686163 87.8954543,92.7623144 C88.0165762,92.5479515 88.2469363,92.4035194 88.510662,92.4035194 C88.9019086,92.4035194 89.2177396,92.7193504 89.2177396,93.1101399 L89.2163684,96.2346274 Z M84.0638892,96.2346274 L84.0611468,93.1732147 C84.0657175,92.4501399 83.5643186,91.9496551 82.9468255,91.9496551 C82.5212992,91.9496551 82.1506205,92.1864141 81.9618532,92.5360679 C82.1597618,92.013644 82.6657313,91.6429654 83.2576288,91.6429654 C84.0222964,91.6429654 84.6420748,92.2627438 84.6420748,93.0283255 L84.6402465,96.2346274 L84.0638892,96.2346274 Z M78.6815069,96.2346274 L78.1951911,96.2346274 L78.1938199,93.1380208 C78.1961053,92.8263033 77.9799141,92.6096551 77.7125319,92.6096551 C77.5740416,92.6096551 77.448349,92.6686163 77.3601357,92.7623144 C77.4812576,92.5479515 77.7116177,92.4035194 77.9758006,92.4035194 C78.366133,92.4035194 78.6824211,92.7193504 78.6824211,93.1101399 L78.6815069,96.2346274 Z M94.6595402,96.2346274 L94.1736814,96.2346274 L94.1723102,93.1380208 C94.1745956,92.8263033 93.9579474,92.6096551 93.6905651,92.6096551 C93.5516177,92.6096551 93.4263823,92.6686163 93.338169,92.7623144 C93.4597479,92.5479515 93.689651,92.4035194 93.9538338,92.4035194 C94.3437091,92.4035194 94.6599972,92.7193504 94.6599972,93.1101399 L94.6595402,96.2346274 Z M98.8348172,96.2346274 L98.3489584,96.2346274 L98.3475873,93.1380208 C98.3498726,92.8263033 98.1332244,92.6096551 97.8658421,92.6096551 C97.7264377,92.6096551 97.6016593,92.6686163 97.513446,92.7623144 C97.6350249,92.5479515 97.864928,92.4035194 98.1291108,92.4035194 C98.5189861,92.4035194 98.8352742,92.7193504 98.8352742,93.1101399 L98.8348172,96.2346274 Z M102.972615,96.2346274 L102.486299,96.2346274 L102.484928,93.1380208 C102.487213,92.8263033 102.271022,92.6096551 102.00364,92.6096551 C101.86515,92.6096551 101.739457,92.6686163 101.650787,92.7623144 C101.772823,92.5479515 102.003183,92.4035194 102.266909,92.4035194 C102.656784,92.4035194 102.973986,92.7193504 102.973986,93.1101399 L102.972615,96.2346274 Z M107.072934,96.2346274 L106.586618,96.2346274 L106.585247,93.1380208 C106.587989,92.8263033 106.370884,92.6096551 106.104416,92.6096551 C105.965468,92.6096551 105.839319,92.6686163 105.752019,92.7623144 C105.873141,92.5479515 106.103044,92.4035194 106.367227,92.4035194 C106.758017,92.4035194 107.074305,92.7193504 107.074305,93.1101399 L107.072934,96.2346274 Z M72.6651773,96.2346274 L72.1788615,96.2346274 L72.1774903,93.1380208 C72.1802327,92.8263033 71.9635845,92.6096551 71.6966593,92.6096551 C71.5572548,92.6096551 71.4320194,92.6686163 71.3438061,92.7623144 C71.465385,92.5479515 71.6957452,92.4035194 71.9594709,92.4035194 C72.3498033,92.4035194 72.6665485,92.7193504 72.6665485,93.1101399 L72.6651773,96.2346274 Z M68.5648587,96.2346274 L68.0785429,96.2346274 L68.0771717,93.1380208 C68.079,92.8263033 67.8628089,92.6096551 67.5958837,92.6096551 C67.4569363,92.6096551 67.3317008,92.6686163 67.2430305,92.7623144 C67.3646094,92.5479515 67.5949695,92.4035194 67.8591524,92.4035194 C68.2490277,92.4035194 68.5657729,92.7193504 68.5657729,93.1101399 L68.5648587,96.2346274 Z M64.4266039,96.2346274 L63.9402881,96.2346274 L63.939374,93.1380208 C63.9412022,92.8263033 63.7250111,92.6096551 63.4580859,92.6096551 C63.3186814,92.6096551 63.193903,92.6686163 63.1052327,92.7623144 C63.2268116,92.5479515 63.4571717,92.4035194 63.7208975,92.4035194 C64.1112299,92.4035194 64.427518,92.7193504 64.427518,93.1101399 L64.4266039,96.2346274 Z M60.2513269,96.2346274 L59.7654681,96.2346274 L59.764097,93.1380208 C59.7663823,92.8263033 59.5497341,92.6096551 59.2828089,92.6096551 C59.1434044,92.6096551 59.018169,92.6686163 58.9304127,92.7623144 C59.0515346,92.5479515 59.2818947,92.4035194 59.5456205,92.4035194 C59.9359529,92.4035194 60.252241,92.7193504 60.252241,93.1101399 L60.2513269,96.2346274 Z M71.666036,78.956705 C71.666036,78.8369543 71.7633906,78.7395997 71.8826842,78.7395997 C72.0024349,78.7395997 72.0993324,78.8369543 72.0993324,78.956705 C72.0993324,79.0759986 72.0024349,79.1733532 71.8826842,79.1733532 C71.7633906,79.1733532 71.666036,79.0759986 71.666036,78.956705 L71.666036,78.956705 Z M72.4951496,82.2621898 L72.0476842,82.2621898 L72.0476842,80.1628961 C72.0476842,79.8338102 71.8205235,79.6057355 71.5389723,79.6057355 C71.4493878,79.6057355 71.3657452,79.6285886 71.292615,79.6697244 C71.4201357,79.5426607 71.5956482,79.4640457 71.7903573,79.4640457 C72.1806898,79.4640457 72.4951496,79.7807909 72.4951496,80.1711233 L72.4951496,82.2621898 Z M68.1109945,78.956705 C68.1109945,78.8369543 68.208349,78.7395997 68.3280997,78.7395997 C68.4473934,78.7395997 68.5447479,78.8369543 68.5447479,78.956705 C68.5447479,79.0759986 68.4473934,79.1733532 68.3280997,79.1733532 C68.208349,79.1733532 68.1109945,79.0759986 68.1109945,78.956705 L68.1109945,78.956705 Z M68.9410222,82.2621898 L68.4926427,82.2621898 L68.4926427,80.1628961 C68.4926427,79.8338102 68.2659391,79.6057355 67.9843878,79.6057355 C67.8952604,79.6057355 67.8107036,79.6285886 67.7375734,79.6697244 C67.8650942,79.5426607 68.0415208,79.4640457 68.2353158,79.4640457 C68.6256482,79.4640457 68.9410222,79.7807909 68.9410222,80.1711233 L68.9410222,82.2621898 Z M64.2524626,78.956705 C64.2524626,78.8369543 64.3493601,78.7395997 64.4691108,78.7395997 C64.5884044,78.7395997 64.685759,78.8369543 64.685759,78.956705 C64.685759,79.0759986 64.5884044,79.1733532 64.4691108,79.1733532 C64.3493601,79.1733532 64.2524626,79.0759986 64.2524626,78.956705 L64.2524626,78.956705 Z M65.0815762,82.2621898 L64.6336537,82.2621898 L64.6336537,80.1628961 C64.6336537,79.8338102 64.4069501,79.6057355 64.125856,79.6057355 C64.0358144,79.6057355 63.9517147,79.6285886 63.8790416,79.6697244 C64.0065623,79.5426607 64.1825319,79.4640457 64.3767839,79.4640457 C64.7671163,79.4640457 65.0815762,79.7807909 65.0815762,80.1711233 L65.0815762,82.2621898 Z M66.6991247,77.8053615 L66.3074211,77.8053615 L66.3074211,76.8130762 C66.3074211,76.525126 66.1090554,76.3258463 65.8626981,76.3258463 C65.7849972,76.3258463 65.7109529,76.3459571 65.646964,76.381608 C65.7589446,76.2705416 65.912518,76.2024391 66.0820886,76.2024391 C66.4239723,76.2024391 66.6991247,76.4789626 66.6991247,76.8199321 L66.6991247,77.8053615 Z M70.8140693,77.8053615 L70.4223657,77.8053615 L70.4223657,76.8130762 C70.4223657,76.525126 70.224,76.3258463 69.9776427,76.3258463 C69.8999418,76.3258463 69.8263546,76.3459571 69.7623657,76.381608 C69.8738892,76.2705416 70.0279197,76.2024391 70.1974903,76.2024391 C70.5384598,76.2024391 70.8140693,76.4789626 70.8140693,76.8199321 L70.8140693,77.8053615 Z M96.2569778,77.8053615 L95.8648172,77.8053615 L95.8648172,76.8130762 C95.8648172,76.525126 95.6669086,76.3258463 95.4200942,76.3258463 C95.3428504,76.3258463 95.2688061,76.3459571 95.2048172,76.381608 C95.3163407,76.2705416 95.4708283,76.2024391 95.6399418,76.2024391 C95.9813684,76.2024391 96.2569778,76.4789626 96.2569778,76.8199321 L96.2569778,77.8053615 Z M94.1576842,78.956705 C94.1576842,78.8369543 94.2541247,78.7395997 94.3734183,78.7395997 C94.493626,78.7395997 94.5900665,78.8369543 94.5900665,78.956705 C94.5900665,79.0759986 94.493626,79.1733532 94.3734183,79.1733532 C94.2541247,79.1733532 94.1576842,79.0759986 94.1576842,78.956705 L94.1576842,78.956705 Z M94.9863407,82.2621898 L94.5388753,82.2621898 L94.5388753,80.1628961 C94.5388753,79.8338102 94.3117147,79.6057355 94.0301634,79.6057355 C93.9405789,79.6057355 93.8564792,79.6285886 93.783349,79.6697244 C93.9113269,79.5426607 94.0868393,79.4640457 94.2815485,79.4640457 C94.6718809,79.4640457 94.9863407,79.7807909 94.9863407,80.1711233 L94.9863407,82.2621898 Z M100.441853,77.8053615 L100.049235,77.8053615 L100.049235,76.8130762 C100.049235,76.525126 99.8513269,76.3258463 99.6058837,76.3258463 C99.5272687,76.3258463 99.4536814,76.3459571 99.3892355,76.381608 C99.5012161,76.2705416 99.6547895,76.2024391 99.8243601,76.2024391 C100.165787,76.2024391 100.441853,76.4789626 100.441853,76.8199321 L100.441853,77.8053615 Z M98.0610083,78.956705 C98.0610083,78.8369543 98.1588199,78.7395997 98.2776565,78.7395997 C98.3969501,78.7395997 98.4947618,78.8369543 98.4947618,78.956705 C98.4947618,79.0759986 98.3969501,79.1733532 98.2776565,79.1733532 C98.1588199,79.1733532 98.0610083,79.0759986 98.0610083,78.956705 L98.0610083,78.956705 Z M98.8905789,82.2621898 L98.4426565,82.2621898 L98.4426565,80.1628961 C98.4426565,79.8338102 98.2159529,79.6057355 97.9344017,79.6057355 C97.8443601,79.6057355 97.7611745,79.6285886 97.6871302,79.6697244 C97.815108,79.5426607 97.9910776,79.4640457 98.1853296,79.4640457 C98.575205,79.4640457 98.8905789,79.7807909 98.8905789,80.1711233 L98.8905789,82.2621898 Z M101.618792,78.956705 C101.618792,78.8369543 101.715233,78.7395997 101.834526,78.7395997 C101.954734,78.7395997 102.051175,78.8369543 102.051175,78.956705 C102.051175,79.0759986 101.954734,79.1733532 101.834526,79.1733532 C101.715233,79.1733532 101.618792,79.0759986 101.618792,78.956705 L101.618792,78.956705 Z M102.447449,82.2621898 L101.999983,82.2621898 L101.999983,80.1628961 C101.999983,79.8338102 101.772823,79.6057355 101.491729,79.6057355 C101.401687,79.6057355 101.317587,79.6285886 101.244914,79.6697244 C101.372435,79.5426607 101.547947,79.4640457 101.741742,79.4640457 C102.132989,79.4640457 102.447449,79.7807909 102.447449,80.1711233 L102.447449,82.2621898 Z M59.4583213,66.7951537 C59.4583213,66.6648906 59.563903,66.5593089 59.6937091,66.5593089 C59.8244294,66.5593089 59.929554,66.6648906 59.929554,66.7951537 C59.929554,66.9249598 59.8244294,67.0305416 59.6937091,67.0305416 C59.563903,67.0305416 59.4583213,66.9249598 59.4583213,66.7951537 L59.4583213,66.7951537 Z M60.8642493,74.4843366 L60.3610222,74.4843366 L60.3587368,71.8447936 C60.3628504,71.1505139 59.8820194,70.6687687 59.2878366,70.6687687 C59.0976981,70.6687687 58.9194432,70.7185886 58.7644986,70.8045166 C58.9866316,70.6253476 59.2686399,70.5179377 59.5757867,70.5179377 C60.2888061,70.5179377 60.8642493,71.0965803 60.8642493,71.8095997 L60.8642493,74.4843366 Z M60.625662,69.9274114 L59.0570194,69.9274114 L59.061133,69.4159571 L60.0479335,69.4255554 L59.7343878,67.4222452 L60.625662,69.9274114 Z M105.893252,66.7951537 C105.893252,66.6648906 105.998834,66.5593089 106.12864,66.5593089 C106.258903,66.5593089 106.364485,66.6648906 106.364485,66.7951537 C106.364485,66.9249598 106.258903,67.0305416 106.12864,67.0305416 C105.998834,67.0305416 105.893252,66.9249598 105.893252,66.7951537 L105.893252,66.7951537 Z M107.300551,74.4843366 L106.796867,74.4843366 L106.794125,71.8447936 C106.798238,71.1505139 106.317407,70.6687687 105.722767,70.6687687 C105.532629,70.6687687 105.354831,70.7185886 105.200343,70.8045166 C105.421562,70.6253476 105.704028,70.5179377 106.010717,70.5179377 C106.724651,70.5179377 107.300551,71.0965803 107.300551,71.8095997 L107.300551,74.4843366 Z M107.061507,69.9274114 L105.492864,69.9274114 L105.496521,69.4159571 L106.483778,69.4255554 L106.170233,67.4222452 L107.061507,69.9274114 Z M83.2256343,64.6003338 C83.8764931,64.6003338 84.4080582,65.111331 84.4400526,65.7544197 L84.0222964,65.7544197 C83.9340831,65.2767881 83.5158698,64.9152507 83.0126427,64.9152507 C82.5304404,64.9152507 82.1273102,65.2466219 82.0157867,65.6931731 C82.0765762,65.0797936 82.5948864,64.6003338 83.2256343,64.6003338 L83.2256343,64.6003338 Z M86.94659,84.3272036 L90.5788753,84.3272036 L90.5788753,84.8190042 L86.7276565,84.7184501 C86.3194986,83.691428 84.8002188,82.9363587 83.0030443,82.9363587 C81.3192216,82.9363587 79.8890693,83.6045859 79.3794432,84.5337964 C79.8648449,83.5150014 81.3978366,82.7704446 83.2137507,82.7704446 C84.9058006,82.7704446 86.351036,83.4158186 86.94659,84.3272036 L86.94659,84.3272036 Z M91.4619224,85.2660125 L91.4619224,96.2666219 L90.8741385,96.2666219 L90.8567701,85.2660125 L91.4619224,85.2660125 Z" id="Fill-42" fill="#FFFFFF" mask="url(#mask-6)"></path>
            </g>
        </g>
    </g>
</svg>