<?xml version="1.0" encoding="utf-8"?>
<!-- Generator: Adobe Illustrator 23.0.3, SVG Export Plug-In . SVG Version: 6.00 Build 0)  -->
<svg version="1.1" id="Layer_1" xmlns="http://www.w3.org/2000/svg" xmlns:xlink="http://www.w3.org/1999/xlink" x="0px" y="0px"
	 viewBox="0 0 2768.51 600" style="enable-background:new 0 0 2768.51 600;" xml:space="preserve">
<style type="text/css">
	.st0{fill:#FFFFFF;}
</style>
<path class="st0" d="M356.37,328.61c0,72.64-4.12,105.54-26.04,128.15c-17.82,18.51-36.33,24.68-76.76,24.68h-139.8
	c-40.43,0-58.94-6.17-76.76-24.68c-25.35-26.04-37-65.09-37-167.2c0-102.11,11.65-141.18,37-167.22
	c17.13-18.51,36.33-24.68,76.76-24.68h139.8c40.43,0,58.94,6.17,76.76,24.68c21.25,21.92,26.73,53.46,26.04,122.67h-126.1
	c-1.36-28.78-2.05-35.64-4.79-39.07c-4.12-4.79-9.6-6.17-23.99-6.17h-33.59c-14.39,0-19.87,0.69-23.97,6.17
	c-4.12,4.81-6.86,16.46-6.86,83.62s2.74,78.81,6.86,83.6c4.1,5.48,9.58,6.17,23.97,6.17h33.59c14.39,0,19.87-1.38,23.99-6.17
	c3.43-3.43,4.1-11.65,4.79-44.55H356.37z M431.64,97.66h135.7v387.91c0,52.77-8.24,73.33-24.68,89.77
	C528.27,589.73,507.02,600,460.42,600c-31.52,0-54.82-4.1-85.67-10.27v-98.01h23.99c17.13,0,23.99-1.36,27.42-4.79
	c4.1-4.1,5.48-10.96,5.48-26.04V97.66z M909.7,451.29c-8.22,26.04-19.87,31.54-45.91,31.54h-91.84c-26.04,0-37.69-5.5-45.91-31.54
	L609.51,97.66h145.3l62.35,246.73h7.55L886.4,97.66h139.8L909.7,451.29z M1296.68,199.77V97.66h-91.84V1.72h-98.41l-40.71,123.55
	v74.5v183.69c0,47.96,6.86,65.78,19.18,78.12c13.03,13.01,33.59,23.99,79.5,23.99c38.38,0,76.07-4.81,98.7-10.29l32.88-7.53v-89.1
	h-58.25c-17.13,0-23.99-1.36-27.4-4.79c-4.12-4.12-5.5-10.96-5.5-26.04V199.77H1296.68z M1403.04,100.02h35.69l53.32,155.99
	l52.88-155.99h33.93l-70.5,191.68h-34.81L1403.04,100.02z M1778.02,229.13c-6.61,52.88-50.23,66.98-82.84,66.98
	c-45.39,0-86.36-26.88-86.36-100.46c0-74.47,44.5-100.02,85.04-100.02c39.22,0,85.48,22.91,85.48,99.58v5.73h-137.48
	c1.32,44.5,18.95,67.86,54.64,67.86c28.2,0,44.95-14.54,49.35-39.66H1778.02z M1745.41,178.9c-2.2-36.57-20.71-56.84-50.67-56.84
	c-31.73,0-49.35,20.27-52.44,56.84H1745.41z M1794.31,352.07c3.96,1.32,11.02,2.64,16.74,2.64c18.95,0,24.68-12.34,24.68-33.49
	v-221.2h33.05v224.28c0,34.37-15.42,59.05-53.76,59.05c-9.69,0-17.18-1.76-20.71-3.52V352.07z M1832.21,0h40.1v37.45h-40.1V0z
	 M1933.98,0h40.1v37.45h-40.1V0z M1937.51,100.02h33.05V291.7h-33.05V100.02z M2193.95,226.05c-3.08,45.83-34.37,70.06-77.55,70.06
	c-39.66,0-88.57-20.27-88.57-100.46c0-79.75,48.91-100.02,88.57-100.02c43.18,0,74.47,24.24,77.55,69.62h-32.61
	c-1.32-22.47-14.98-40.98-45.39-40.98c-35.69,0-54.64,23.79-54.64,71.38c0,47.59,18.95,71.82,54.64,71.82
	c30.4,0,44.06-18.95,45.39-41.42H2193.95z M2405.45,229.13c-6.61,52.88-50.23,66.98-82.84,66.98c-45.39,0-86.36-26.88-86.36-100.46
	c0-74.47,44.5-100.02,85.04-100.02c39.22,0,85.48,22.91,85.48,99.58v5.73h-137.48c1.32,44.5,18.95,67.86,54.64,67.86
	c28.2,0,44.95-14.54,49.35-39.66H2405.45z M2372.84,178.9c-2.2-36.57-20.71-56.84-50.67-56.84c-31.73,0-49.35,20.27-52.44,56.84
	H2372.84z M2577.5,168.77V291.7h-28.2v-88.34c-6.39,6.17-18.73,11.02-31.5,11.02v-22.91c16.74-0.44,30.18-10.57,34.81-22.69H2577.5z
	 M2612.31,262.62h29.08v29.08h-29.08V262.62z M2768.51,230.24c0,38.55-15.2,63.67-50.89,63.67s-50.89-25.12-50.89-63.67
	c0-38.55,15.2-63.67,50.89-63.67S2768.51,191.68,2768.51,230.24z M2694.71,230.24c0,24.23,4.63,41.42,22.91,41.42
	s22.91-17.18,22.91-41.42c0-24.23-4.63-41.42-22.91-41.42S2694.71,206,2694.71,230.24z"/>
</svg>
