
<svg width="88px" height="41px" viewBox="0 0 73 34" version="1.1" xmlns="http://www.w3.org/2000/svg" xmlns:xlink="http://www.w3.org/1999/xlink">
    <!-- Generator: Sketch 46.2 (44496) - http://www.bohemiancoding.com/sketch -->
    <desc>Created with Sketch.</desc>
    <defs>
        <polygon id="path-1" points="0 0.653529508 0 22.0975787 19.9149917 22.0975787 19.9149917 0.653529508"></polygon>
        <polygon id="path-3" points="13.9585574 27.1148328 13.9585574 0.0797016393 1.05467049 0.0797016393 1.05467049 27.1148328 13.9585574 27.1148328"></polygon>
    </defs>
    <g id="Page-1" stroke="none" stroke-width="1" fill="none" fill-rule="evenodd">
        <g id="Page2_Akcije_Korekture-Copy-81" transform="translate(-402.000000, -1254.000000)">
            <g id="Page-1" transform="translate(402.000000, 1253.000000)">
                <g id="Group-3" transform="translate(0.000000, 5.904025)">
                    <mask id="mask-2" fill="white">
                        <use xlink:href="#path-1"></use>
                    </mask>
                    <g id="Clip-2"></g>
                    <path d="M19.9118869,13.5577754 C19.9118869,17.6170541 19.6821164,19.455218 18.4566738,20.717759 C17.4610016,21.752923 16.4270344,22.0975787 14.1676246,22.0975787 L6.35662459,22.0975787 C4.09721475,22.0975787 3.06324754,21.752923 2.06757541,20.717759 C0.650657377,19.2637426 -0.000359016393,17.080923 -0.000359016393,11.3761525 C-0.000359016393,5.67018525 0.650657377,3.48736557 2.06757541,2.03215246 C3.02495246,0.998185246 4.09721475,0.653529508 6.35662459,0.653529508 L14.1676246,0.653529508 C16.4270344,0.653529508 17.4610016,0.998185246 18.4566738,2.03215246 C19.6438213,3.25759508 19.950182,5.01916885 19.9118869,8.88697213 L12.8655918,8.88697213 C12.7901984,7.27857869 12.7519033,6.89562787 12.598723,6.70295574 C12.3677557,6.43608689 12.0613951,6.3583 11.2583951,6.3583 L9.38073934,6.3583 C8.57654262,6.3583 8.27018197,6.3977918 8.0416082,6.70295574 C7.8118377,6.97221803 7.65865738,7.62323443 7.65865738,11.3761525 C7.65865738,15.1278738 7.8118377,15.7788902 8.0416082,16.0469557 C8.27018197,16.3533164 8.57654262,16.3916115 9.38073934,16.3916115 L11.2583951,16.3916115 C12.0613951,16.3916115 12.3677557,16.3150213 12.598723,16.0469557 C12.7901984,15.8554803 12.8272967,15.3959393 12.8655918,13.5577754 L19.9118869,13.5577754 Z" id="Fill-1" fill="#FF3B3B" mask="url(#mask-2)"></path>
                </g>
                <path d="M23.704177,6.55731475 L31.2866033,6.55731475 L31.2866033,28.2311344 C31.2866033,31.1798557 30.8258656,32.3287082 29.9079803,33.2477902 C29.1037836,34.0519869 27.9166361,34.6252164 25.3125705,34.6252164 C23.5509967,34.6252164 22.2489639,34.3966426 20.5256852,34.0519869 L20.5256852,28.5745934 L21.8660131,28.5745934 C22.8233902,28.5745934 23.206341,28.4992 23.3978164,28.3077246 C23.6275869,28.0779541 23.704177,27.6950033 23.704177,26.8525115 L23.704177,6.55731475 Z" id="Fill-4" fill="#FF3B3B"></path>
                <path d="M50.777723,26.3160213 C50.318182,27.7712344 49.6671656,28.0787918 48.2119525,28.0787918 L43.0804115,28.0787918 C41.6263951,28.0787918 40.9753787,27.7712344 40.5158377,26.3160213 L34.004477,6.55695574 L42.1242311,6.55695574 L45.6078869,20.3431852 L46.0291328,20.3431852 L49.4756902,6.55695574 L57.2866902,6.55695574 L50.777723,26.3160213 Z" id="Fill-6" fill="#FF3B3B"></path>
                <g id="Group-10" transform="translate(58.639344, 1.117139)">
                    <mask id="mask-4" fill="white">
                        <use xlink:href="#path-3"></use>
                    </mask>
                    <g id="Clip-9"></g>
                    <path d="M13.9589164,11.1457836 L13.9589164,5.43981639 L8.82737541,5.43981639 L8.82737541,0.0797016393 L3.32844098,0.0797016393 L1.05467049,6.98239016 L1.05467049,11.1457836 L1.05467049,21.4088656 C1.05467049,24.0883246 1.43762131,25.0839967 2.12573607,25.7745049 C2.85453934,26.5009148 4.0033918,27.1148328 6.56796557,27.1148328 C8.71249016,27.1148328 10.8187197,26.8455705 12.0836541,26.5392098 L13.9206213,26.1191607 L13.9206213,21.1408 L10.6655393,21.1408 C9.7081623,21.1408 9.32521148,21.0642098 9.13493279,20.8727344 C8.90396557,20.6429639 8.82737541,20.2600131 8.82737541,19.4175213 L8.82737541,11.1457836 L13.9589164,11.1457836 Z" id="Fill-8" fill="#FF3B3B" mask="url(#mask-4)"></path>
                </g>
            </g>
        </g>
    </g>
</svg>