<?xml version="1.0" encoding="utf-8"?>
<!-- Generator: Adobe Illustrator 19.2.0, SVG Export Plug-In . SVG Version: 6.00 Build 0)  -->
<svg version="1.1" id="Layer_1" xmlns="http://www.w3.org/2000/svg" xmlns:xlink="http://www.w3.org/1999/xlink" x="0px" y="0px"
	 viewBox="0 0 196 196" style="enable-background:new 0 0 196 196;" xml:space="preserve">
<style type="text/css">
	.st0{fill:#E12A26;}
	.st1{fill:#FFFFFF;}
</style>
<rect class="st0" width="196" height="196"/>
<g id="XMLID_57_">
	<path id="XMLID_63_" class="st1" d="M60,104.1c0,9.6-0.5,13.9-3.4,16.9c-2.4,2.4-4.8,3.3-10.1,3.3H28c-5.3,0-7.8-0.8-10.1-3.3
		c-3.3-3.4-4.9-8.6-4.9-22s1.5-18.6,4.9-22.1c2.3-2.4,4.8-3.3,10.1-3.3h18.4c5.3,0,7.8,0.8,10.1,3.3c2.8,2.9,3.5,7.1,3.4,16.2H43.4
		c-0.2-3.8-0.3-4.7-0.6-5.2c-0.5-0.6-1.3-0.8-3.2-0.8h-4.4c-1.9,0-2.6,0.1-3.2,0.8c-0.5,0.6-0.9,2.2-0.9,11s0.4,10.4,0.9,11
		c0.5,0.7,1.3,0.8,3.2,0.8h4.4c1.9,0,2.6-0.2,3.2-0.8c0.5-0.5,0.5-1.5,0.6-5.9H60z"/>
	<path id="XMLID_61_" class="st1" d="M69.9,73.7h17.9v51.2c0,7-1.1,9.7-3.3,11.8c-1.9,1.9-4.7,3.3-10.8,3.3c-4.2,0-7.2-0.5-11.3-1.4
		v-12.9h3.2c2.3,0,3.2-0.2,3.6-0.6c0.5-0.5,0.7-1.4,0.7-3.4V73.7z"/>
	<path id="XMLID_59_" class="st1" d="M133,120.3c-1.1,3.4-2.6,4.2-6.1,4.2h-12.1c-3.4,0-5-0.7-6.1-4.2L93.4,73.7h19.2l8.2,32.5h1
		l8.1-32.5h18.4L133,120.3z"/>
	<path id="XMLID_58_" class="st1" d="M184,87.1V73.7h-12.1V61h-13l-5.4,16.3v9.8v24.2c0,6.3,0.9,8.7,2.5,10.3
		c1.7,1.7,4.4,3.2,10.5,3.2c5.1,0,10-0.6,13-1.4l4.3-1v-11.8h-7.7c-2.3,0-3.2-0.2-3.6-0.6c-0.5-0.5-0.7-1.4-0.7-3.4V87.1H184z"/>
</g>
</svg>
